HIERARCHY
ROOT hip
{
	OFFSET 0.000000 0.000000 0.000000 
	CHANNELS 6 Xposition Yposition Zposition Xrotation Zrotation Yrotation
	JOINT abdomen
	{
		OFFSET 0.000000 3.402643 0.000000 
		CHANNELS 3 Xrotation Zrotation Yrotation
		JOINT chest
		{
			OFFSET 0.000000 8.438565 -0.680529 
			CHANNELS 3 Xrotation Zrotation Yrotation
			JOINT neck
			{
				OFFSET 0.000000 10.207942 -0.272212 
				CHANNELS 3 Xrotation Zrotation Yrotation
				JOINT head
				{
					OFFSET 0.000000 3.130431 0.000000 
					CHANNELS 3 Xrotation Zrotation Yrotation
					End Site
					{
						OFFSET 0.000000 3.130435 0.000000 
					}
				}
			}
			JOINT lCollar
			{
				OFFSET 3.470700 6.669187 -0.816635 
				CHANNELS 3 Yrotation Zrotation Xrotation
				JOINT lShldr
				{
					OFFSET 3.198488 0.000000 0.000000 
					CHANNELS 3 Zrotation Yrotation Xrotation
					JOINT lForeArm
					{
						OFFSET 10.139888 0.000000 0.000000 
						CHANNELS 3 Yrotation Zrotation Xrotation
						JOINT lHand
						{
							OFFSET 8.370511 0.000000 0.000000 
							CHANNELS 3 Zrotation Yrotation Xrotation
							End Site
							{
								OFFSET 4.083176 0.000000 0.000000 
							}
						}
					}
				}
			}
			JOINT rCollar
			{
				OFFSET -3.470700 6.669187 -0.816635 
				CHANNELS 3 Yrotation Zrotation Xrotation
				JOINT rShldr
				{
					OFFSET -3.198488 0.000000 0.000000 
					CHANNELS 3 Zrotation Yrotation Xrotation
					JOINT rForeArm
					{
						OFFSET -10.139888 0.000000 0.000000 
						CHANNELS 3 Yrotation Zrotation Xrotation
						JOINT rHand
						{
							OFFSET -8.370511 0.000000 0.000000 
							CHANNELS 3 Zrotation Yrotation Xrotation
							End Site
							{
								OFFSET -4.083176 0.000000 0.000000 
							}
						}
					}
				}
			}
		}
	}
	JOINT lThigh
	{
		OFFSET 5.308129 -1.633274 1.361059 
		CHANNELS 3 Xrotation Zrotation Yrotation
		JOINT lShin
		{
			OFFSET -2.041588 -20.007561 0.000000 
			CHANNELS 3 Xrotation Zrotation Yrotation
			JOINT lFoot
			{
				OFFSET 0.000000 -19.190928 -1.224953 
				CHANNELS 3 Xrotation Yrotation Zrotation
				End Site
				{
					OFFSET 0.000000 -2.449906 4.627600 
				}
			}
		}
	}
	JOINT rThigh
	{
		OFFSET -5.308129 -1.633274 1.361059 
		CHANNELS 3 Xrotation Zrotation Yrotation
		JOINT rShin
		{
			OFFSET 2.041588 -20.007561 0.000000 
			CHANNELS 3 Xrotation Zrotation Yrotation
			JOINT rFoot
			{
				OFFSET 0.000000 -19.190928 -1.224953 
				CHANNELS 3 Xrotation Yrotation Zrotation
				End Site
				{
					OFFSET 0.000000 -2.449906 4.627600 
				}
			}
		}
	}
}
MOTION
Frames: 15
Frame Time: 0.016667
-7.452556 45.047096 -2.124025 12.807872 13.258081 -49.699936 -14.248193 -0.255561 -7.142137 22.622507 2.614447 -3.647140 -17.506313 -9.172050 14.215167 0.878906 0.029293 5.977017 1.993405 -2.003458 -0.008156 -72.665260 -31.421381 20.161991 -97.296013 -0.791656 -1.971651 -0.052206 0.007387 40.849609 -2.003062 1.991579 -0.506922 79.844864 22.376272 21.294416 104.586861 0.293585 -1.004739 0.054246 -0.042591 29.277349 -15.926684 -9.911385 21.065590 46.500538 1.916732 3.290999 -11.994659 -8.300491 -1.952754 -53.030575 3.132465 13.816669 45.116150 -1.543478 -3.460155 -10.328038 9.199483 2.362338 
-7.128775 44.594822 -2.184232 13.178318 14.288189 -52.912090 -14.160412 0.340880 -7.947331 23.088198 3.333532 -3.960455 -17.346687 -9.722004 15.108758 1.113295 -0.283150 6.332340 1.993405 -2.003458 -0.008156 -64.824997 -35.217884 14.636698 -93.953812 -0.788309 -1.914024 -0.056129 0.015228 38.769535 -2.003062 1.991579 -0.506922 80.123672 28.574429 20.194855 100.885208 0.300295 -0.972633 0.053265 -0.042026 30.605473 -13.511478 -12.957462 24.513388 36.561432 2.279238 2.765783 -13.051771 -7.282229 -1.917085 -55.755203 5.202083 13.792596 47.103176 -1.380431 -3.615723 -8.054061 8.456071 2.109840 
-6.804255 44.105915 -2.277776 13.510480 15.231977 -55.507675 -14.036363 1.203214 -9.031184 23.656927 4.653342 -4.341126 -17.345194 -9.694039 15.930228 1.162121 -0.253854 6.723323 1.993405 -2.003458 -0.008156 -55.650383 -37.678955 8.261933 -90.142303 -0.777068 -1.847391 -0.050811 0.023460 36.796883 -2.003062 1.991579 -0.506922 80.448410 34.288727 19.894051 97.222427 0.293994 -0.942878 0.052944 -0.041834 31.044928 -10.964230 -16.140827 26.152905 26.446495 2.417010 2.140997 -13.584940 -5.951077 -1.675926 -58.138023 7.067033 14.056100 48.850464 -1.273212 -3.708179 -5.704535 7.120578 1.840631 
-6.496728 43.781307 -2.337721 13.397263 15.820697 -57.397659 -13.756793 1.783306 -10.026149 24.244608 5.827477 -4.744851 -17.304502 -9.294172 16.365284 1.191408 -0.107399 6.970404 1.993405 -2.003458 -0.008156 -45.120670 -38.902782 2.319590 -85.832794 -0.767565 -1.794523 -0.051429 0.023909 35.302742 -2.003062 1.991579 -0.506922 81.469513 39.043640 19.804043 93.891754 0.290475 -0.910494 0.052901 -0.041808 31.103523 -8.005622 -19.138565 25.792742 17.616070 2.291796 1.599033 -13.688294 -6.306176 -1.911588 -59.263870 8.279480 15.048241 49.557350 -1.212256 -3.735670 -3.788715 5.771469 1.596821 
-6.234030 43.551353 -2.345923 13.082598 16.136211 -58.735371 -13.454575 1.871066 -10.544964 24.653921 6.164540 -4.990412 -17.341070 -8.628945 16.372614 1.181642 -0.078108 7.664391 1.993405 -2.003458 -0.008156 -34.248497 -39.295650 -1.602972 -81.024384 -0.745164 -1.711172 -0.051687 0.024090 34.687504 -2.003062 1.991579 -0.506922 83.244987 42.427925 19.251198 90.961426 0.278214 -0.883713 0.052631 -0.041644 31.474615 -4.867838 -21.586302 24.019983 10.381411 2.018038 1.098502 -14.537498 -5.881075 -1.915908 -59.615032 9.011437 16.503901 49.714836 -1.203049 -3.755024 -3.204165 5.375307 1.506863 
-6.042329 43.194862 -2.336595 12.983774 16.333429 -59.843418 -13.317935 1.891135 -10.798899 24.880005 6.162295 -5.108714 -17.405802 -8.103022 16.025736 1.074220 -0.087875 7.508103 1.993405 -2.003458 -0.008156 -25.372980 -38.941624 -3.165847 -76.206497 -0.722830 -1.632473 -0.051396 0.023886 35.380863 -2.003062 1.991579 -0.506922 84.675926 44.525398 18.616144 88.441422 0.276950 -0.842408 0.052122 -0.041328 32.177742 -0.867786 -24.391994 24.153248 1.695888 2.825657 0.102254 -13.131434 -6.110581 -2.068864 -60.133888 9.715241 17.684858 50.096626 -1.203055 -3.771221 -4.358957 6.071507 1.661663 
-5.927741 42.780727 -2.274762 13.153798 16.580660 -60.823181 -13.338956 2.071524 -10.959485 25.028046 6.172688 -5.143377 -17.439587 -7.746842 15.577963 0.966797 -0.058585 7.303689 1.993405 -2.003458 -0.008156 -19.924673 -38.030117 -2.928101 -72.482971 -0.691527 -1.573805 -0.056485 0.015507 37.441410 -2.003062 1.991579 -0.506922 85.019165 45.554325 18.191238 86.556358 0.274677 -0.824857 0.047186 -0.032826 32.822269 -1.294610 -24.857098 25.287498 1.646557 2.775898 0.112903 -17.450220 -5.847345 -2.477604 -60.973454 10.359083 18.070599 50.774384 -1.146676 -3.810143 -7.309907 6.670463 2.068842 
-5.891817 42.442490 -2.146144 13.402622 16.917751 -61.676384 -13.399478 2.280017 -10.835922 25.169418 6.050427 -5.034851 -17.368683 -7.703127 15.036728 0.996095 -0.107406 7.019598 1.993405 -2.003458 -0.008156 -17.786671 -37.207386 -1.498051 -70.665260 -0.676095 -1.542863 -0.046024 0.014949 40.058598 -2.003062 1.991579 -0.506922 84.254913 45.359825 17.330040 85.765137 0.266562 -0.822429 0.046980 -0.032692 33.183598 -1.753105 -25.189238 26.266026 1.483899 2.644663 0.125450 -20.298088 -5.430308 -2.581785 -61.804577 10.741099 17.733408 51.392513 -1.105269 -3.837528 -10.762449 6.667667 2.529908 
-5.934106 42.261303 -1.967123 13.558167 17.222227 -62.242264 -13.469481 2.440817 -10.467114 25.209774 5.871306 -4.830287 -17.508116 -7.734632 14.500279 0.976569 -0.205048 6.744516 1.993405 -2.003458 -0.008156 -18.548340 -36.666618 0.886727 -70.655502 -0.676358 -1.542747 -0.052099 0.007293 41.689457 -2.003062 1.991579 -0.506922 82.836357 43.623428 16.147120 86.380455 0.267461 -0.824627 0.047069 -0.032750 33.027348 -2.134372 -25.463135 26.956507 1.463327 2.633009 0.106308 -21.370220 -5.413502 -2.694693 -62.293434 10.790405 17.205353 51.738735 -1.047259 -3.895195 -13.110946 6.573587 2.875138 
-6.048268 42.230167 -1.761881 13.539676 17.385715 -62.318344 -13.489224 2.459610 -9.984215 25.145388 5.546587 -4.599434 -18.014423 -7.582772 13.960238 0.761728 -0.283178 6.480562 1.993405 -2.003458 -0.008156 -21.798899 -36.321850 4.497180 -71.935638 -0.684927 -1.563910 -0.052144 0.007332 41.337894 -2.003062 1.991579 -0.506922 81.393005 40.157257 14.882040 88.246124 0.279820 -0.841460 0.052037 -0.041275 32.294926 -2.074698 -25.588104 27.030041 1.465025 2.644757 0.145715 -20.725012 -5.962502 -2.863281 -62.239723 10.435346 16.936941 51.856201 -1.049355 -3.901631 -13.558762 6.538848 2.888933 
-6.219774 42.325577 -1.516788 13.367566 17.416557 -61.643925 -13.448523 2.298549 -9.475216 25.039003 4.895455 -4.377295 -18.981873 -7.605324 13.484501 0.839845 -0.087881 6.219400 1.993405 -2.003458 -0.008156 -27.048523 -35.927162 9.307945 -73.645981 -0.702434 -1.595237 -0.055935 0.015070 39.501957 -2.003062 1.991579 -0.506922 80.325882 35.235626 13.761916 90.658722 0.282879 -0.882232 0.052958 -0.041843 31.025396 -1.616785 -25.668226 26.324631 1.678851 2.790739 0.112259 -18.508202 -7.031884 -3.110578 -61.732193 9.576870 16.969368 51.865215 -1.047230 -3.880715 -12.959661 6.364013 2.713114 
-6.451262 42.515888 -1.223941 13.236656 17.310764 -60.115753 -13.378795 2.156694 -9.174564 25.042414 4.195398 -4.252853 -19.600056 -7.945832 13.052371 0.703131 -0.244122 5.006728 1.993405 -2.003458 -0.008156 -34.154316 -35.169685 14.867674 -74.779602 -0.711001 -1.607969 -0.056417 0.015455 37.695316 -2.003062 1.991579 -0.506922 79.548569 29.411388 13.066592 92.788048 0.288450 -0.903782 0.054043 -0.042477 29.550787 -1.130857 -25.670715 24.876925 2.577012 3.493502 0.112828 -14.831727 -8.174753 -3.309506 -60.910542 8.208659 16.974207 51.854916 -1.059110 -3.876895 -12.370522 5.891238 2.431306 
-6.761778 42.774975 -0.912035 13.188111 17.065605 -57.783306 -13.478680 2.383738 -9.545686 25.067236 4.345113 -4.386357 -20.412685 -7.813662 13.188995 0.410157 -0.107419 5.048040 1.993405 -2.003458 -0.008156 -43.317566 -33.348942 20.307106 -74.476707 -0.710081 -1.606806 -0.050715 0.023388 37.031254 -2.003062 1.991579 -0.506922 78.472855 23.116047 13.388812 94.165161 0.286127 -0.911869 0.050583 -0.051717 28.037115 -0.778081 -24.720814 22.649418 4.802756 3.015267 0.358232 -9.794189 -8.942280 -2.566238 -59.811378 6.472840 16.692604 51.844128 -1.078692 -3.866960 -12.403649 5.041930 2.098966 
-7.159247 43.055317 -0.628823 13.140991 16.543270 -54.809097 -13.866262 2.939277 -10.353658 24.834452 5.400708 -4.682716 -21.145555 -7.082348 13.559995 -0.029298 0.410156 5.390415 1.993405 -2.003458 -0.008156 -53.868008 -30.391333 25.147594 -72.502495 -0.690991 -1.574040 -0.056488 0.015509 37.431644 -2.003062 1.991579 -0.506922 77.043251 16.237930 14.162016 94.663307 0.287923 -0.915115 0.052031 -0.052462 26.445320 -5.504472 -21.480804 23.188929 18.239107 2.799126 1.474497 -9.111156 -10.292684 -2.706271 -58.341980 4.586058 16.195494 51.967224 -1.127138 -3.807861 -13.147334 3.762102 1.683843 
-7.607945 43.382427 -0.357787 13.127620 15.741887 -51.231167 -14.358639 3.188428 -10.610466 24.426098 5.926121 -4.746167 -21.523890 -6.317777 13.705729 -0.341833 0.830063 5.610283 1.993405 -2.003458 -0.008156 -63.438873 -27.226364 29.759216 -69.121292 -0.664826 -1.523261 -0.056351 0.015404 37.939457 -2.003062 1.991579 -0.506922 76.991173 8.558570 13.522686 94.253036 0.284728 -0.912307 0.049383 -0.062023 24.863289 -8.673762 -18.012144 24.817863 29.995913 2.690184 2.260881 -5.911279 -9.876858 -1.666339 -56.314739 2.547871 15.355451 51.525692 -1.183637 -3.810689 -14.099548 2.155190 1.148125 
